<?xml version="1.0" encoding="utf-8"?>
<!-- Generator: Adobe Illustrator 19.0.0, SVG Export Plug-In . SVG Version: 6.00 Build 0)  -->
<svg version="1.1" xmlns="http://www.w3.org/2000/svg" xmlns:xlink="http://www.w3.org/1999/xlink" x="0px" y="0px"
	 viewBox="0 0 560 560" style="enable-background:new 0 0 560 560;" xml:space="preserve">
<style type="text/css">
	.st0{display:none;}
	.st1{display:inline;fill:#AA9F9F;stroke:#000000;stroke-miterlimit:10;}
	.st2{display:inline;fill:#D8D8D8;}
	.st3{fill:#FFFFFF;}
</style>
<g id="Ebene_2_1_" class="st0">
	<rect x="-54" y="-13" class="st1" width="684" height="631"/>
</g>
<g id="Ebene_1">
	<g id="Ebene_1_1_" class="st0">
		<rect id="XMLID_1_" x="-3" y="-4.3" class="st2" width="572.2" height="600.6"/>
	</g>
	<g id="Ebene_2">
		<g id="XMLID_5_">
			<path id="XMLID_375_" class="st3" d="M247.3,285.2c-0.6-1-1.3-2.2-1.2-3.3c0.1-7.7,0.4-15.3,0.7-23c0.1-3.1,2-5.2,4.8-6
				c2.7-0.7,5.6-1,8.4-1.3c2.3-0.2,4.7,0,7.6,0c-7.5-15.2-9.6-31-9.1-47.6c-1.9,0.3-3.3,0.5-4.7,0.8c-6,1.1-10-1.3-11.8-7.1
				c-2.1-7-4.1-14.1-6.4-21c-1.5-4.6-0.6-8.4,2.7-11.7c2.3-2.2,4.6-4.3,7-6.5c1.4-1.3,2.9-2.5,3-4.8c0-1,1-2.2,1.9-3
				c3.4-3.3,9.8-4.1,14.1-2c0.9,0.4,2,0.5,3,0.4c2.8-0.2,5.5-0.6,8.3-0.9c0.4,0.3,0.7-0.1,1-0.4c10.6-13.9,25-22.2,41.8-26.1
				c18.8-4.4,37.4-2.6,55.6,3.4c5.2,1.7,10.1,4,15.4,6.2c0.5-0.6,1-1.3,1.6-1.9c4.4-3.8,9.2-6.2,15.3-5.1c2.3,0.4,4.8,0.1,7.2,0.3
				c2.2,0.2,4.3,0.7,6.5,0.9c1.6,0.2,3.3,0.4,4.7,0c4.1-1,8.2-1.7,12.3-0.6c6,1.5,11.6,3.9,16.8,7.2c3.9,2.4,5.9,5.9,6.5,10.4
				c0.8,6.3,1.8,12.5,2.6,18.8c0.2,1.9,1.1,2.4,2.6,2c0.9-2.6,0.3-4.8-0.9-7c-3.6-6.8-4.2-14.2-3.1-21.7c0.6-4.2,2.9-6,7.1-6.4
				c3.1-0.3,6.1,0.5,8.9,2.2c3.3-2.9,6.8-3.6,10.9-1.8c4,1.7,6.4,4.7,8.3,8.7c10.5-2.3,15.2,4.7,19.2,11.9c2.9-0.2,5.4-0.4,7.9-0.4
				c6.6,0,10.3,2.7,11,9.2c0.6,5.7,1,11.5,2,17.2c0.5,2.8,0.9,5.5,2.4,8c0.6,1.1,1.1,2.4,1.1,3.7c0.1,4.8,0,9.6-0.2,14.4
				c-0.2,4-0.7,8-2.6,11.8c-0.5,1.1-0.1,2.6-0.1,3.8c4.9,0.5,4.9,0.5,8.3,3.6c0.9,0.8,1.8,1.6,2.6,2.5c4.8,4.7,7.9,10.1,7.8,17.1
				c-0.1,2.5,0.6,5,0.9,7.5c0.2,2.2,0.2,4.4,0.2,6.5c-0.1,2.4-0.7,4.8-0.5,7.2c0.2,3.9,1.1,7.8,1.3,11.7c0.3,6.9,0.2,13.8,0.2,20.7
				c0,2.9-0.6,5.9,1.2,8.6c0.4,0.7,0.4,1.7,0.5,2.6c0.1,7.9,0,15.8,0.2,23.6c0.1,6.3-3.4,9-8.5,8.6c-0.2,0-0.4,0.2-0.7,0.4
				c-0.2,2.6-0.3,5.3-0.5,8c-0.6,8.6-1.9,16.9-6.4,24.5c-0.6,0.9-0.7,2.3-0.6,3.4c0.4,6.2,1,12.4,1.5,18.6c1.5,18.8,3,37.5,4.3,56.3
				c0.9,12.9,1.1,25.8,1.9,38.7c0.4,6.9-1.8,12.4-6.6,17.1c-0.7,0.7-1.4,1.4-2,2.1c-2,2.5-4.6,3.3-7.8,3.3
				c-13.9,0.2-27.8,0.7-41.7,1c-0.7,0-1.5,0.2-2.2,0.3c-0.1,2.4,0.1,4.7-0.4,6.9c-0.7,3.1,0,5.6,1.8,8c1,1.3,1.9,2.7,3.1,3.8
				c3.4,2.9,5.6,6.6,6.3,10.9c1,5.7,1.4,11.5,2,17.2c0.1,0.8-0.1,1.7-0.2,2.4c-85.7,0-171.1,0-256.8,0c1.4-5.5,2.7-10.7,4.2-15.8
				c0.8-2.8,0.9-5.5,0.4-8.4c-0.9-5.1-1.5-10.2-2.2-15.3c-0.9-6,0.1-11.5,3.7-16.5c0.5-0.7,0.8-1.9,0.6-2.7
				c-2-6.6-1.6-13.2-0.5-19.9c1.1-6.4,1.6-12.8,1.2-19.3c-0.1-2.5,0.1-5.1-0.2-7.5c-0.8-7.2-1.8-14.3-2.8-21.4c-0.1-1-0.7-2-1.2-3.3
				c-4.1,1.7-8,2.9-11.5,4.8c-3.4,1.9-6.7,4.3-9.3,7.1c-3.1,3.3-6.5,5-11,4.9c-2.4,0-4.8-0.2-7.2-0.1c-0.9,0.1-2.1,0.6-2.7,1.3
				c-3.7,4-7.9,7.1-13.3,8.5c-8.1,2-16.1,4.2-24.1,6.3c-2,0.5-4.1,0.9-6.1,0.9c-3.8,0.1-7.3,0.8-10.8,2.3
				c-4.9,2.1-10.1,2.8-15.4,2.2c-2.4-0.3-4.7-1-7.1-1.2c-1.1-0.1-2.2,0.3-3.3,0.7c-2.7,1.1-5.2,2.8-8,3.6c-3.6,1-7.4,1.4-10.5-1.7
				c-3.5,3.2-6.9,6.3-10.4,9.4c4.5,5.7,3.3,11-3,13.6c-1.4,0.6-1.7,1.5-2.1,2.6c-1.4,3.2-3.8,5.5-7.2,5.3
				c-5.1-0.2-10.2-0.8-15.2-1.9c-2.4-0.5-4.6-1.8-7.3-1.7c-1.6,0.1-3.9-0.9-4.9-2.2c-2.9-3.5-5.6-7.2-7.7-11.2c-1.5-2.7-2-6-3-9
				c-1.2-3.8-0.9-7.4,1.3-10.7c3.5-5.3,7-10.7,13.7-12.6c0-1,0-1.8,0-2.7c0-6.3,2.8-11.2,8.2-14.4c2-1.2,4.2-1.8,6.3-2.8
				c2.9-1.3,5.8-2.6,8.5-4.1c0.9-0.5,1.7-1.5,1.9-2.4c0.8-3.6,3.1-5.7,6.4-6.8c1.8-0.6,2.8-1.8,3.5-3.5c3-6.7,8.5-11.3,13.9-15.8
				c1.2-1,2.9-1.5,4.4-2.1c1.6-0.7,3.3-1.2,4.9-1.8c6.4-2.1,12.3-5.1,17.7-9.2c2.3-1.7,4.7-3.4,7.3-4.4c9.7-3.5,19.4-6.7,29.2-9.7
				c1.6-0.5,4-0.5,5.4,0.3c3.2,1.9,5.9,0.9,8.6-0.5c2.7-1.5,5.5-2.8,7.8-4.7c4.6-3.8,9.8-5.6,15.6-6.1c4.1-0.3,6.7-2.6,7.7-6.6
				c2-7.7,4-15.4,5.8-23.2c1.3-5.8,3.8-10.8,7.5-15.5c2-2.5,4-5.3,5.1-8.3c2.4-6.3,5.7-11.8,11.5-16
				C249.6,288.9,248.4,287.1,247.3,285.2z M282.8,148.3c0.2-0.3,0.5-0.5,0.7-0.8c0.2-0.2,0.5-0.4,0.7-0.5c0.2-0.2,0.4-0.5,0.6-0.7
				c0.7-0.3,1.6-0.5,2.2-1c12.8-10.1,27.2-13.5,43.2-11.1c7.5,1.1,14.7,3.2,21.8,6.2c3.6-6.6,10.1-8.7,17.2-11.4
				c-2.8-0.7-4.9-1.4-7-1.8c-14.2-2.7-28.5-3.9-42.6-0.3c-13.2,3.3-25.3,9-34.6,19.5c-0.2,0.2-0.4,0.5-0.6,0.7s-0.5,0.4-0.7,0.5
				C283.3,147.9,283.1,148.2,282.8,148.3C282.8,148.4,282.8,148.4,282.8,148.3z M423.8,177.9c-0.5-0.2-1-0.3-1.6-0.5
				c-2.8-2.1-2.9-5.3-3.3-8.3c-0.9-6.3-1.9-12.5-2.8-18.8c-0.3-2.1-1.1-3.5-3.1-4.5c-6.9-3.6-8.4-3.2-11.6,3.9
				c-1.7,3.8-3.4,7.5-3.3,11.9c0.1,2.2,0.8,3.8,2.7,4.9c2.1,1.2,4.1,2.5,6.3,3.5c5.1,2.5,10.2,4.9,15.2,7.4
				C422.7,177.5,423.2,177.7,423.8,177.9C423.7,177.8,423.7,177.9,423.8,177.9z M414.6,232.4c-0.1-0.2-0.2-0.3-0.3-0.5
				c-0.2-0.8-0.5-1.6-0.8-2.8c-1.7,2.1-0.2,2.3,0.9,2.7C414.5,232.1,414.5,232.2,414.6,232.4z M388,251.4c0.2,0.1,0.4,0.2,0.6,0.3
				c0.3-0.3,0.6-0.6,0.8-1c1.2-2.4,2.5-4.8,3.7-7.2c0.4-0.8,0.9-1.5,1-2.3c0.4-2.2,0.6-4.5,0.9-6.7c0.1,0,0.1-0.1,0.2-0.1h-0.1
				C390.4,239.1,389.5,245.3,388,251.4z M64.7,472.8c1.7,0.4,3.2,0.4,4.6-1.4c-1.4-2.6-2.8-5.3-4.5-8.5c-2.3,2.8-4.4,5.4-6.5,8
				c-0.1,0.2,0,0.6,0.1,0.9c-0.1,0-0.1,0.1-0.2,0.1h0.1C60.5,472.2,62.7,472.4,64.7,472.8z M447.6,201.9c1.2,2.4,3.2,3.9,5.5,5.1
				c0.9,1.6,1.7,3.2,2.7,4.7c0.6,1,1.3,2,2.2,2.7c1.5,1.2,3.3,2.2,4.8,3.4c1.1,1,2.6,2.1,2.9,3.4c0.9,3.8,3.9,4.4,7.4,5.1
				c-0.6-1-1.1-2.1-1.9-3c-2.4-2.7-4.9-5.3-7.5-7.8c-3.3-3.1-6.9-5.9-10.4-8.9C451.4,205.1,450.2,202.7,447.6,201.9z M550.6,321.5
				c-0.5,0.9-0.3,2.1-0.4,3.2c-0.1,2.3-0.2,4.6-0.4,7.1c0.9,0.2,1.7,0.3,2.5,0.4c1.9,0.2,2.9-0.6,2.8-2.6c-0.1-5-0.2-10-0.3-15
				l0.1-0.1v0.1C553.5,317,551.9,319.2,550.6,321.5z M403.8,239.1c3.8-6.1,7.7-12.2,11.5-18.3c1.7-2.7,1.4-3.6-1.6-4.8
				c-1.3-0.5-2.7-0.6-4.3-0.9c-0.2,1.2-0.3,2-0.5,2.9c-0.6,4.3-1.8,8.3-4.1,12c-1,1.6-1.6,3.3-2.6,4.9c-2,3.2-4.1,6.4-6.2,9.6
				c-1,1.5-1.9,3.1-2.8,4.6c-0.2,0.1-0.3,0.2-0.5,0.3c0.1-0.1,0.3-0.2,0.4-0.3C397.6,246.5,401.2,243.3,403.8,239.1z M465.5,202
				c0.5-2.7,2.3-5.9-0.2-8.1c-2.9-2.6-6.4-4.5-10.7-4.6c-0.4,3.9-1.1,7.5-4.3,10.6c3.6,3.1,7,6.1,10.5,9.3c1.9-1.9,3.8-3.4,4.1-6
				v0.1C465.1,202.7,465.4,202.4,465.5,202z M272.1,291.9c-0.4,2.1-1.5,4.1-2.4,6.1c-0.8,1.7-1.7,3.3-2.8,4.8
				c-9.5,13-13.4,28.1-15.7,43.6c-0.8,5.8-0.1,11.9,0.1,17.9c0.7-5.4,1.4-10.8,2-16.2c0.9-8.5,3.1-16.5,6.7-24.2
				c3.4-7.4,6.9-14.6,12.3-20.8c2.4-2.8,3.7-6,4.2-9.8c0.4-2.7,1.8-5.3,2.9-7.9c0.5-1.2,1.2-2.3,1.9-3.4c0.1-0.2,0.2-0.4,0.4-0.6
				c-0.2,0.1-0.4,0.2-0.6,0.3C276.5,283.9,273,286.7,272.1,291.9z M56.6,480.8c0.2-0.1,0.5-0.1,0.7-0.2c-0.3-0.6-0.7-1.1-1-1.7
				c-0.3-1.5-0.6-3-1-4.4c-0.6-2-0.3-3.8,0.9-5.6c4.2-6.1,9.5-10.8,15.9-14.3c4.2-2.3,4.7-2.2,7.9,1.5c0.5,0.6,0.9,1.2,1.6,2.1
				c1.5-3.6,1.1-6.8,0.8-9.9c-0.1-1.3-0.1-2.2,1.8-1.9c1.2,7,0.4,13.5-3.4,19.7c-1.2,1.9-1.9,4.1-2.6,6.2c-0.5,1.6,0.1,2.8,1.6,3.5
				c2.8,1.2,5.6,2.4,8.6,3.2c0.9,0.2,2.3-0.5,3.1-1.2c4.6-3.9,9.1-7.9,13.5-12c1.4-1.3,2.9-2.4,4.9-2.1c1.9,0.3,3-0.5,3.9-2.1
				c0.6-1.1,1.5-2.1,2.5-3.4c-1.3-1.8-2.6-3.7-4.1-5.4c-6.7-7.2-13.5-14.3-19.9-21.2c-5.1,2.2-10.4,4.3-15.5,6.6
				c-5.5,2.4-7.6,5.9-7.3,11.9c0.2,5.3-0.1,5.7-5,7.2c-1.1,0.3-2.3,0.9-3.1,1.7c-2.1,2.2-4.1,4.6-5.9,7c-1.8,2.3-2.3,4.9-1.1,7.7
				c0.7,1.6,1.3,3.3,2,5C56.5,479.5,56.5,480.2,56.6,480.8z M484.6,509.1c-1.2-2.5-2.3-5.1-3.5-7.7c-3.3,1.3-6.2,2.5-9.1,3.6
				c-5.5,2-11.2,2.8-17,3.4c-12.3,1.1-24.6,2.5-36.9,3.8c-5.9,0.6-11.8,1.3-17.6,1.5c-16.6,0.8-33.2,1.6-49.9,1.9
				c-7.5,0.2-15.1-0.6-22.6-1.2c-9.9-0.8-19.9-1.6-29.7-3c-10.3-1.5-20.4-3.8-30.6-5.8c-0.6-0.1-1.3-0.3-1.9-0.5
				c-5-1.2-4.9-1.1-7.9,3.1c-3.4,4.8-3.5,10-2.2,15.8c3.8,0.8,7.7,1.6,11.6,2.4c7.6,1.6,15.2,3.2,22.8,4.8c9.7,2,19.6,2.1,29.4,2
				c16.2-0.2,32.4-0.5,48.6-0.3c18.8,0.3,37.4-0.9,55.9-3.7c9.3-1.4,18.6-3,28.1-1.7c4.1,0.5,8.3,0.8,12.4,1.5
				c4.4,0.7,8.7,0.5,13-0.8c2.9-0.9,5.9-1.7,8.5-2.4c0.2-3,0.4-5.8,0.7-8.6c0.4-3.1-0.4-5.8-2.2-8.3L484.6,509.1z M427.3,389.2
				c-4.9-1.4-8.9-4.6-12.6-8.1c-2.3-2.1-4.7-4.3-6.7-6.8c-2.9-3.5-6.3-6-10.4-7.8c-3.4-1.5-6.8-2.8-10.4-4.3
				c-0.3,1.6-0.5,2.9-0.8,4.5c-4.5-0.4-9-0.8-13.6-1.3c-0.1,0.8-0.3,1.5-0.3,2.2c-0.3,6.5-0.5,12.9-0.8,19.4c-0.2,5.4-1,6.4-6.3,7.9
				c-0.2,4.9-0.5,9.9-0.7,14.9c-0.7,17.6-1.4,35.2-2.2,52.8c-0.1,2-0.2,3.9-0.4,5.9c-0.7,5-4.4,8.2-9.5,8c-15-0.6-30-1.2-44.9-1.9
				c-5.6-0.2-11.1-0.5-16.7-0.8c-6.2-0.3-9.5-3.9-9.3-10.2c0.1-4.6,0.3-9.2,0.5-13.8c0.2-5.6,0.5-11.1,0.8-16.7c0-0.7,0-1.5,0-2.4
				c-2.2-0.4-4.2-0.6-6.2-1c-2.9-0.6-4.2-2.1-4.1-5c0.4-7.2,0.8-14.4,1.4-21.6c0.3-3.6,2.1-4.9,5.8-4.5c1.4,0.1,2.8,0.3,4.4,0.5
				c0-3.2,0-6.1,0-9.5c-3.9,0-7.9,0.2-11.7-0.1c-3-0.2-6.1-0.6-9-1.5c-3.3-1-5.9-3.2-7.7-6.2c-0.4-0.6-1.2-1.4-1.8-1.4
				c-1.4,0-1.2,1.3-1.2,2.2c0,5.8,0,11.6,0.2,17.4c0.3,7.8,0.8,15.5,1.3,23.3c0.1,1,0,2,0.4,2.9c4.6,11.5,5,23.6,5.4,35.8
				c0.2,7.5-0.4,14.8-1.5,22.2c-0.9,5.6-1.2,11.3,0.8,16.5c3.7,0.9,7.2,1.5,10.7,2.5c13.8,3.7,27.9,5.5,42.1,6.6
				c7.7,0.6,15.4,1.7,23.1,2.6c9.5,1.1,19,0.2,28.5-0.1c11.9-0.4,23.9-0.7,35.7-1.5c10.6-0.7,21.1-2.1,31.7-3.2
				c6-0.6,12-1.4,17.9-1.9c1.6-0.2,2.6-0.5,2.9-2.3c1.7-8.8,3.5-17.6,5.2-26.4c1.5-7.7,0.1-15.3-0.3-22.9c-0.2-3.5-0.4-7.4,0.8-10.7
				c4.2-11.6,5-23.7,5.4-35.9c0.1-2.9,0-5.9,0-9.2C450.4,397.3,439,392.6,427.3,389.2z M390.8,209.3c-0.1-5.2,2-7.6,7.9-9
				c-0.3-2.7-0.5-5.5-0.8-8.3c-0.2-1.9-1.4-2.5-3.2-2.4c-3.4,0.2-6.8,0.3-10.2,0.4c-3.4,0.1-4.2-0.6-5.1-3.8
				c-2.1-7.3-4.2-14.5-6.1-21.8c-0.5-1.7-1.3-2.8-2.8-3.8c-13.4-9.2-28.4-13.9-44.2-16.5c-6.5-1-12.6,0.3-18.5,2.9
				c-8.4,3.8-15.8,9-22.1,15.7c-5.9,6.4-9.1,14.3-11.9,22.4c-3.9,11.2-3.8,22.8-2.5,34.4c1.1,9.8,2.5,19.5,6.6,28.7
				c3.5,7.8,7.6,15.2,12.5,22.3c0.2,0.4,0.6,0.7,0.7,1.1c2.2,5.7,7.3,7,12.5,8.2c2.6,0.6,5.4,0.9,8.1,0.8c20.7-0.8,41-3.5,60.2-11.8
				c5.2-2.2,7.6-6.5,9.7-11.3c0.7-1.6,1.5-3.1,2.3-4.6c0.6-1.2,1.2-2.3,1.6-3.5c0.6-2.1,0.9-4.3,1.5-6.4c1.1-3.8,2.8-7.4,5.7-10.2
				c3.7-3.6,4.5-8.1,4.7-13.1C393.2,218.7,390.8,214.8,390.8,209.3z M387.6,355.8c2.2,1,4.4,2,6.6,2.9c6.8,2.9,12.9,6.8,18.9,11.1
				c15.4,11.3,32.5,18.8,51.7,20.9c0.5,0.1,1,0,1.6-0.4c-0.5-0.3-1.1-0.6-1.6-0.9c-4.7-2.4-8.9-5.5-12.8-9.1
				c-6.3-5.8-12.7-11.4-19.3-17.3c0.2-0.4,0.6-1.1,1.1-2c11.2,7.1,19,17.9,30.5,24.4c-1.1-1.1-2.2-2.2-3.2-3.4
				c-9-10.1-11.6-21.8-7.9-34.8c0.5-1.9,1.3-3.8,2.5-5.3c3.9-5.2,6.7-11,9.1-17.3c-3.2-3.8-3.6-8.5-3.2-13.4
				c0.3-4.8,0.3-9.6-0.4-14.4c-1-6.8,0.4-13.5,1.6-20.2c0.1-0.3,0.1-0.6,0.1-1.2c-0.9-0.5-1.8-1.1-2.7-1.6c-7,6.3-15,10.8-23.3,14.8
				c-7.3,3.5-14.7,4.1-22.1,0.5c-1.5-0.7-2.9-1.8-4.7-3c-4.6,5.6-9.2,11.3-12.7,17.9c-1.6,3-3.1,6-4.7,9c-2.6,4.8-5.7,9.3-9.4,13.4
				c-4.7,5.2-4.4,11.6-3.5,18c0.1,0.5,1.2,1.2,1.9,1.3c2.1,0.4,4.3,0.5,6.9,0.8C388.2,350,387.9,352.8,387.6,355.8z M116.4,435.1
				c4.3,4.9,7.5,10.7,11.4,16.3c1.5-0.5,3.1-1.2,4.8-1.7c1.4-0.4,2.8-0.7,4.2-0.7c1.5,0,2.4,0.9,2.5,2.4c0.1,2.2,0.3,4.4,0.2,6.6
				c0,2.6-1.2,3.5-3.8,3.1c-1.9-0.2-3.7-0.5-5.6-0.5c7.9,2.6,15.7,3.2,23.6-0.3c2.5-1.1,5.5-1.3,8.3-1.8c3.5-0.7,7.1-1.1,10.6-1.9
				c6.8-1.6,13.5-3.5,20.3-5.2c2.9-0.7,5.4-2,7.9-3.8c2.5-1.7,3.3-3.8,2.9-6.7c-0.9-6-0.9-12-0.3-18c0.4-4.1-0.5-8-2.8-11.6
				c-3.8-6-7-12.3-9.1-19.2c-0.9-2.8-2.4-5.4-3.8-8c-1.7-3.1-4.5-5.1-7.7-6.4c-1.2-0.5-2.9-0.4-4.1,0c-7.7,2.4-15.5,4.7-23,7.6
				c-3.6,1.4-7.1,3.4-10.3,5.6c-5.8,4.2-12.1,7.4-18.9,9.7c-1.9,0.6-3.7,1.2-5.5,2c-1.4,0.6-3,1.2-4,2.3c-4.7,5-10.4,9.2-12,16.8
				C106.9,426.2,112.2,430.2,116.4,435.1z M522.7,270.5c-8.7,1.1-17-0.7-25.2-2.9c-7.7-2.1-15.3-4.6-22.9-7
				c-5.4-1.7-10-4.8-13.8-9.1c-0.3-0.4-0.7-0.7-1.3-1.4c-0.5,4.2,0.4,7.6,2.1,10.7c1.1,1.9,2.3,3.8,3.6,5.5c2.2,2.8,2.8,5.8,2.2,9.2
				c-0.8,4.6-1.6,9.3-2,13.9c-0.3,2.8,0.1,5.7,0.2,8.5c0.1,4.1,0.3,8.3,0.4,12.4c0.1,2.5-0.1,5,0.3,7.5c0.2,1.4,0.9,3.1,1.9,4.1
				c8.5,8.3,17.5,15.9,29.3,19.1c11.7,3.2,22.7,0.5,33.3-4.7c2.5-1.2,4-3.3,3.9-6c-0.1-3.5-0.4-7-1.1-10.4
				c-1.5-7.4-3.7-14.7-2.9-22.3c0.3-2.7,0.5-5.4,0.7-8.2c0.4-6.7-0.8-13-3.4-19.5C526,270.2,524.3,270.3,522.7,270.5z M458.4,532.7
				c-0.5-1.6-1.7-1.8-3-2c-7.8-1.2-15.5-0.8-23.2,0.2c-9.8,1.3-19.5,2.9-29.3,3.6c-10.7,0.8-21.4,1-32.1,1.2
				c-16.8,0.2-33.7-0.2-50.5,0.3c-16.1,0.5-31.8-1.9-47.4-5.5c-5.4-1.3-10.9-2.3-16.8-3.5c0.3,2.1,0.3,4.1,0.8,5.9
				c1.6,6,1.2,11.8-1,17.6c-0.6,1.7-0.9,3.6-1.5,5.6c68.8,0,137.4,0,206.4,0C461.4,548.1,461,540.3,458.4,532.7z M459,344.9
				c-5.4,8.9-4.1,22.6,2.8,31.5c5,6.5,11.2,11.6,18.4,15.5c2.8,1.5,5.9,2.3,9.1,2.2c10.2-0.2,20.2-2.2,30-4.8
				c1.7-0.4,3.4-1.6,4.7-2.9c9.4-9.5,17.8-19.7,19.8-33.5c0.9-6.1,1-12.4,1.4-18.6c0.2-2.4,0.2-4.8-0.2-7.5
				c-0.7,0.8-1.4,1.4-1.9,2.3c-6.6,11.2-17.3,15.1-29.2,17c-11.4,1.7-22-0.7-31.5-7.2c-4.9-3.3-9.6-6.8-14.8-10.6
				C466.1,334.7,462.3,339.6,459,344.9z M519.5,505.4c5.9-0.3,11.5-0.5,17.2-0.8c0.3,0,0.7-0.1,0.9-0.3c4-4.3,9.1-7.8,8.7-14.7
				c-0.8-15.2-1.3-30.4-2.2-45.5c-0.8-13-2-25.9-3-38.9c-0.7-9.3-1.4-18.5-2.1-27.8c0-0.2-0.2-0.3-0.5-0.7
				c-6.7,9.1-13.1,18.4-26.2,18.6C514.7,432.4,517.1,468.7,519.5,505.4z M500.2,179.8c-0.4-0.1-1.1-0.2-1.2-0.5
				c-1.7-4.3-5.7-2.6-8.8-3.3c-1.4-0.3-2.9,0-4.2-0.2c-1.5-0.2-3.3,0.2-4.1-1.9c-0.1-0.4-1.4-0.4-2.1-0.4c-1.8-0.1-3.7,0-5.6,0
				c-3.2,4.8-2.1,9.6,0.8,14.6c-1.1,0.8-2,1.6-3.1,2.3c-1.9,1.3-2.9,2.6-2.7,5.3c0.5,5.7-0.8,11.1-5.9,15.2c2.3,2.6,4.6,5.1,6.8,7.5
				c0.9-0.7,1.7-1.5,2.7-1.8c8.7-3.1,17.7-3.8,27-3.7c0.9,3.2,1.7,6.4,2.7,10c10.5-2.5,21.8-3,28.5-14.4
				c-16.8,1.6-32.8-0.6-48.8-4.6c0.3-1,0.5-1.6,0.8-2.7c16,3.8,32.1,6.2,48.9,4.3c0.2-3.2,0.5-7,0.8-10.8c0.1-0.7,0.4-1.4,0.7-2.1
				c0.6-1.4,1.4-2.7,1.9-4.2c0.2-0.7,0.1-2.1-0.3-2.3c-0.7-0.4-1.9-0.4-2.6-0.1c-3.3,1.7-6.8,2.6-10.4,1.9c-2.3-0.5-4.5-1.4-7.1-2.3
				c0.6-1.1,1-1.8,1.4-2.7c5.5,2.4,10.8,2.9,16.3-0.3c-0.2-1.6-0.3-3.1-0.5-5c-5.8,2.9-11.3,2.9-16.9-0.2c0.5-1.6,0.9-2.4,2.9-1.8
				c4.8,1.5,9.5,1.3,14.1-1.5c-0.4-1.2-0.7-2.3-1.1-3.5c-5.6,1.1-11,1.6-16-2.2c0.5-0.7,0.9-1.4,1.1-1.7c2.8,0.6,5.3,1.3,7.9,1.6
				c2,0.2,4.1-0.2,6.2-0.3c0.7-3.7,0.6-6.9-0.3-10.1c-0.7-2.7-1.8-3.5-4.6-3.8c-6.7-0.7-8.6,0.7-10.2,7.2c-0.1,0.6-0.3,1.2-0.5,2.4
				c-1.3-2.1-2.3-3.7-3.3-5.4c-2.2,0.2-4.4,0.6-6.5,0.7c-2,0.1-4.1,0-6.7,0c1,2.1,2,4.3,3.1,6.3c0.4,0.6,1.5,0.9,2.3,1
				c3.2,0.1,6.5,0,9.8,0c0.5,2.3,0.3,2.7-2.1,3.1c-3.7,0.5-7.4,0.6-11-1c-1.6,3.3,1.8,5.6,1.1,9c3.5,0.5,6.7,1,9.9,1.2
				c1.8,0.1,2.7,0.6,2.2,2.7C508.7,181.9,504.4,181,500.2,179.8z M355.5,401.2c-3.1,0.8-6.4,1-9.8,1.4c0.7,0.6,1.5,1.3,2.3,2.1
				c1,0.9,2,1.7,2.8,2.7c1.9,2.2,1.9,3.6,0.3,6.2c1.4,0.2,2.8,0.4,4.1,0.7c4.6,1.1,6.5,6.9,3.2,10.4c-0.7,0.7-1.9,0.8-3.1,1.3
				c0,1.4,0,2.9,0,4.8c-1.3,0-2.5,0-3.7,0c-12.5-0.4-24.9-0.8-37.4-1.2c-2.5-0.1-5.1-0.4-7.5-0.1c-2.4,0.4-4.7,1.5-7.3,2.4
				c-1-0.9-2-1.8-2.9-2.6c-1.7,0.7-3.3,1.7-5,1.9c-1.8,0.2-3.7-0.2-5.8-0.4c-0.1,2.6-0.3,5-0.4,7.4c-0.4,8.3-0.8,16.6-1,24.9
				c-0.2,5.6,2,7.7,7.6,7.9c19.8,0.8,39.6,1.7,59.3,2.5c5.7,0.2,7.8-1.7,8.1-7.4c1-23.2,2-46.3,3.1-69.5c0-0.7,0-1.5,0-2.2
				c-0.3-0.1-0.6-0.3-0.9-0.4C359.2,396.2,358.9,400.3,355.5,401.2z M479.7,498.4c0.4-0.2,0.6-0.7,1-0.8c3.3-0.1,3.8-2.5,3.9-5
				c0.2-2.7,0.3-5.5,0.1-8.2c-0.4-6.4,1.3-12.4,4.2-18c1.8-3.5,3.7-6.9,5.9-10.2c4.2-6.3,5.2-12.9,2.9-20
				c-3.8-11.7-4.6-23.8-4.7-35.9c0-0.5-0.1-1-0.1-1.9c-6.9,0.9-13.5-2.6-20.4,0.2c-1.1,3-2.1,6.2-2.2,9.8
				c-0.1,7.5-0.3,15.1-0.9,22.6c-0.3,3.4-1.3,6.9-2.3,10.2c-2.3,7.7-2.7,15.4-0.8,23.3c2.4,9.7,1.2,19.1-3.3,28
				c-2,4-2.7,7.8-2.4,12.2C467.6,503.8,473.8,501.6,479.7,498.4z M218.3,442.1c2.8,0,5-0.9,6.9-3.1c2.1-2.2,4.5-4.1,6.9-5.9
				c1.5-1.1,2-2.3,2.3-4c1.3-8.7,0.5-17.3-1.1-25.8c-1.2-6.5-2.7-13-4.5-19.5c-1.9-6.8-6-12.5-9.4-18.6c-7.3,0.5-14,1.5-19.7,6.5
				c-3.1,2.7-7.3,4.3-11.1,6.4c3.9,4.7,6,10.5,8.3,16.3c1.7,4.4,3.9,8.8,6.4,12.9c3.3,5.3,4.6,10.9,4.3,17.1c-0.3,5.7,0,11.5,0,17.6
				C211.8,442.1,215,442.1,218.3,442.1z M504,248.2c-8.2-1.9-16.6-3.2-24.6-5.8c-5.9-1.9-12.2-4.4-13.4-12c0-0.2-0.3-0.3-0.2-0.3
				c-2.1,2.2-4.2,4.4-6.4,6.5c-1,0.9-0.9,1.8-0.6,2.9c2.5,7.5,7.2,13.2,14.6,15.9c13.2,5,26.6,10,40.7,10.8
				c12.3,0.7,24.5-0.6,34.7-9c2.2-1.8,3.3-3.6,3-6.4c-0.5-4.8-0.8-9.6-1.6-14.3c-0.3-2-1.4-4-2.6-5.6c-1.7-2.3-3.9-4.1-5.8-6.2
				c-1.4-1.5-3.1-1.9-5-1.3c-0.1,0.3-0.2,0.5-0.2,0.6c0.7,4.2,0.6,4.2-2.9,6.5c-7.6,5-16.1,7.2-25,8.3c-0.6,0.1-1.3,0.2-2.1,0.3
				c0.8,3.3,1.5,6.4,2.4,9.9C507.1,248.8,505.6,248.5,504,248.2z M493.7,506.6c6.7-0.7,13.5-0.7,20.3-0.9c1.1,0,2.1-0.2,3.4-0.2
				c-2.4-36.5-4.8-72.7-7.2-109.2c-4.7,0.7-9.2,1.4-14,2.1c0.9,8.1,1.6,16,2.7,23.9c0.8,5.7,2.1,11.4,3.2,17.1
				c1.2,6.4,0.4,12.4-3.1,18c-2,3.2-3.8,6.6-5.7,10c-2.9,5.3-4.5,10.8-4.2,17c0.3,6-1.3,11.5-5,16
				C485.1,506.3,488.7,507.1,493.7,506.6z M245.2,307.1c-1.6,4.4-3.9,8.3-6.9,11.8c-3.1,3.7-5.1,7.8-6.2,12.5
				c-2,8.8-4.3,17.6-6.6,26.4c-0.3,1.2-0.6,2.3,0.5,3.3c7.2,6.6,10.4,15.3,12.8,24.4c2.1,8.2,3.2,16.7,4.8,25.1
				c1,5.4,1.5,10.8,0.3,16.7c2.8-0.9,5.1-1.6,7.5-2.4c-0.2-4.3-0.6-8.6-0.7-12.8c-0.3-9.7-0.5-19.5-0.8-29.2
				c-0.3-6.7-0.6-13.3-1.2-19.9c-0.9-10.4,0.2-20.6,3.1-30.5c2.1-7.2,3.8-14.6,7.4-21.3c3.5-6.6,6.6-13.5,10-20.5
				C257.9,291.7,249.2,296,245.2,307.1z M295.4,388.8c-0.1,3.7,0.2,4,3.7,5.5c0.9,0.4,1.7,1.2,2.5,2c3.5,3.5,6.8,7.2,10.3,10.5
				c5.8,5.4,10.3,6.1,17.2,2c5.3-3.2,10.3-6.9,15.5-10.3c1.4-0.9,3-1.7,4.6-2.3c1.7-0.7,2.8-1.7,2.9-3.6c0.2-2,0.3-3.9,0.4-5.9
				c0.7-15.1,1.3-30.1,1.9-45.2c0.2-4.2-1.1-5.7-5.4-5.9c-9.8-0.5-19.7-0.8-29.5-1.3c-5.5-0.2-10.9-0.5-16.4-0.7
				c-4.2-0.1-5.4,1.1-5.6,5.3c-0.4,8.4-0.7,16.8-1.1,25.2l0,0C296,372.4,295.7,380.6,295.4,388.8z M352.5,423.4
				c1.3-0.4,2.5-0.7,3.7-1c1.2-4.3,0.8-5.1-3.4-5.4c-5.8-0.4-11.6-0.4-17.4-0.6c-5.5-0.2-10.9-0.1-16.4-0.6c-3.3-0.3-6.5-1.1-9.7-2
				c-2.9-0.8-3.2-2.5-1.4-6.3c-0.1-0.2-0.2-0.4-0.3-0.6c-3-4.3-7.1-5.6-12.4-5.1c-5.1,0.5-10.2-0.2-15.4-0.4c-0.8,0-1.5,0-2.6,0
				c-0.3,1.3-0.7,2.6-0.8,3.8c-0.4,6.3-0.8,12.7-1.2,19c-0.1,1.6,0.6,2.6,2.1,2.7c4.6,0.5,9.1,1,13.7,1.4c0.8,0.1,1.6-0.4,2.3-0.9
				c1-0.7,1.8-1.5,2.8-2.3c1.3,1.2,2.5,2.3,3.6,3.4c0.3,0,0.6,0.1,0.7,0c3.9-2.2,8.1-2,12.4-1.8c12.4,0.5,24.7,0.8,37.1,1.2
				c0.6,0,1.3-0.1,2.2-0.2C352.4,426,352.5,424.8,352.5,423.4z M364,295.4c-1,6.5-0.4,12.8,1.3,19.1c1.5,5.4,2.5,10.9,3.9,16.3
				c0.8,3.2,0.1,5.8-1.9,8.2c-1,1.2-1.9,2.6-3.2,4.4c2,0.1,3.6,0.2,5.4,0.3c0.4-4.7,1-9.2,1.2-13.8c0.1-4,1.7-7.4,3.9-10.6
				c1.8-2.6,3.9-5,5.8-7.6c4.5-5.9,8.9-11.9,13.5-17.8c3.6-4.6,7.5-9.1,11.4-13.8c-3.1-3.9-6.4-8-9.9-12.4
				c-11.7,7.4-24,13.5-37.7,17.3C363.5,287.5,365,289.7,364,295.4z M290.8,374.7c-3.1-4.7-5.8-9.8-8.6-14.7c-0.7-1.3-1.2-3-1.1-4.6
				c0-3.8,0.4-7.6,0.6-11.5c0-0.8,0-1.7,0-2.7c-5.1,0-10-0.2-14.9,0.1c-3.8,0.2-5.7,3-6.4,6.5c-0.7,4-1.3,8-1.6,12
				c-0.5,5.8-0.7,11.6-1,17.4c-0.2,3,1.2,5.2,3.6,6.5c2.2,1.2,4.6,2.4,7,2.5c7.6,0.4,15.3,0.3,23,0.4c0.3,0,0.6-0.2,1.1-0.4
				C292.9,382.3,293.3,378.5,290.8,374.7z M421.1,235.1c0.6,4.8,1.3,9.5,1.7,14.1c0.1,1.6,0.9,2.2,2.2,2.8
				c6.2,2.5,12.3,5.1,18.5,7.6c1.8,0.7,3.8,1.1,5.9,1.7c1.7-1.8,3.5-3.6,5-5.5c0.5-0.6,0.5-1.6,0.6-2.4c0.3-2.5,0.6-5,0.7-7.5
				c0.1-0.9-0.1-1.9-0.2-2.8c-0.1-0.7-0.5-1.4-0.8-2.2c-1.2-3.9-0.6-5.9,2.7-8.2c2.8-2,4.3-4.6,4.3-8c0-3.2-4.1-6.1-7.1-4.9
				c-4,1.6-8.1,2.3-12.4,3c-3.3,0.5-6.4,1.6-9.9,1.4c-2.5-0.2-4.8-0.4-6.4-3.8C424.4,226,426.3,231.8,421.1,235.1z M530.3,269.6
				c0.6,2,1.1,3.7,1.6,5.5c1.7,6.1,2,12.3,1.2,18.5c-1,7.7-0.1,15.2,1.8,22.7c1.1,4.3,1.8,8.7,2.6,13c3.4-3.8,7.1-7.6,10.5-11.7
				c2.7-3.3,4.1-7.3,4.2-11.5c0.3-9.4,0.8-18.8,0.6-28.2c-0.1-5.4-1.2-10.8-2-17C544.7,266.1,538,268.7,530.3,269.6z M348.4,325.1
				c-2.7-2-3.8-4.6-3.8-7.9c0-4.9,1.2-8.9,6.5-10.4c0.6-0.2,1.1-0.6,1.5-1.3c-3.2,0-6.5,0-9.7,0c-7.7,0-15.3-0.1-23,0.1
				c-1.6,0-3.4,0.6-4.9,1.3c-1.9,0.8-3.6,2.1-5.4,3.1c-4.6,2.7-5.1,9.2-1.1,12.7c0.5,0.4,1.1,0.8,1.5,1.3c3,4.2,7.2,5.2,12.2,5.3
				c9.7,0.2,19.4,1.1,29.1,1.6c0.9,0.1,1.7,0,3.4,0C352.2,328.6,350.5,326.7,348.4,325.1z M268,287.7c0.5-0.1,1.1-0.3,1.5-0.6
				c4.8-3.6,9.6-7.2,14.1-10.5c-3.9-6.5-7.8-12.9-11.8-19.7c-4.8,0-9.8-0.2-14.8,0.1c-4.7,0.3-5.4,1.1-5.5,5.9
				c-0.2,5.6-0.3,11.2-0.3,16.7c0,1.3,0.4,2.8,1.1,4c1.3,2.4,2.9,4.6,4.3,6.6C260.6,289.3,264.3,288.5,268,287.7z M418.2,149.9
				c1.2,7.3,2.3,14.7,3.3,22c0.2,1.4,0.8,2.4,1.9,3.2c2.3,1.6,4.6,3.3,6.8,5.1c1.5,1.2,3.1,1.8,5,2c4.3,0.4,6.6-1.8,6-6.2
				c-0.6-5.3-1.5-10.6-2.2-15.9c-0.4-2.5-0.7-5-1.1-7.5c-0.8-6.3-4.2-10.7-9.9-13.3c-3.2-1.5-6.6-2.8-10-4.1
				c-0.9-0.3-1.8-0.4-2.7-0.6C416.5,140.1,417.4,145,418.2,149.9z M473.2,556.2c8.7,0,17.4,0,26.6,0c-0.9-8.2-0.5-16.5-7.6-22.6
				c-1.6-1.4-2.8-3.4-4.2-5.2c-5.8,1.4-11.7,2.9-17.8,4.4C473.5,540.3,471.5,548.4,473.2,556.2z M277.8,299c5,0.2,10,0.4,15,0.7
				c6.1,0.3,12.2,0.5,18.4,0.8c1.1,0.1,2.4,0,3.2,0.6c3.9,2.9,8.2,1,12.7,1.6c0-3.2,0-6,0-8.7c4.6,0,8.7,0,13,0c0,2.9,0,5.5,0,8.5
				c1.3,0.1,2.4,0.1,3.8,0.2c1.2-4.9-0.4-10,2.2-14.8c-4.8,0.7-9.5,1.4-14.2,2c-10.5,1.3-20.9,1.8-31.4,0.7c-1.7-0.2-3.5,0-5.2,0.3
				c-4.6,0.9-8.7-1.8-9.6-6.5c-0.2-1-0.4-1.9-0.7-2.9C280.8,285.2,278.7,290.5,277.8,299z M282.9,337.2c2-3.8,5.2-4.8,9.1-3.9
				c2.1,0.5,3.8,0.3,5.7-1.2c1.4-1.1,3.8-1.3,5.8-1.4c2.9-0.1,5.8,0.2,9.5,0.4c-2.2-2.2-3.7-4.2-5.6-5.5c-5-3.3-4.7-8-3.8-12.9
				c0.1-0.8,0.5-1.7,1-3c-7.7,0-15.2,0-23.2,0c0,9.2,0,18.7,0,28.2c0.3,0.2,0.6,0.4,0.9,0.7C282.5,338.2,282.7,337.7,282.9,337.2z
				 M368.4,151.9c-14.5-9.6-30.2-16-47.8-16.1c-15.3-0.1-28.1,5.8-38.4,17c-0.9,1-1.7,2-2.4,3.1c-2.2,3.3-1.8,5.1,1.6,7.9
				c1-1.2,1.9-2.3,2.9-3.5c9.5-11.4,21.5-18.1,36.4-19.3c7.5-0.6,14.8,1.1,21.9,3.4c9.2,3,17.8,7.4,26,12.4c0.7,0.4,1.4,0.8,2.4,1.4
				C371,155.5,370.7,153.4,368.4,151.9z M503.4,245c0.4,0.1,0.8,0.1,1.6,0.1c-0.5-2.1-1-3.9-1.5-5.8c-1.5-0.1-2.8-0.1-4.5-0.2
				c-1.4-4.9-2.9-9.9-4.4-15.1c1.6-0.3,3-0.6,4.7-1c-0.6-2.4-1.1-4.7-1.7-7.2c-8,0-15.8,0.7-23.5,3.4c0.5,2.1,0.9,4.1,1.3,6.1
				c0,0.2,0,0.6,0.2,0.6c4,2.2,2.6,6.2,3.3,9.5c0.3,1.3,0.4,2.6,0.6,4.2C487.7,241.5,495.6,243.3,503.4,245z M429.1,137.4
				c6.1,3,10,7.6,11,14.5c1.2,8.2,2.4,16.4,3.6,24.7c0.2,1.2-0.3,2.5-0.5,4c4.6-0.8,9.3-1.7,13.7-3.7c2.2-1,2.7-3,2.4-5.2
				c-0.8-6.7-1.6-13.5-2.5-20.2c-0.4-3.1-1.1-6.2-1.5-9.4c-0.3-2.1-1.4-3.7-3-4.8c-4.9-3.4-10.4-5.8-16.1-7
				c-2.7-0.6-5.6-0.2-8.4,0.2c-2.9,0.4-5.7,1.4-8.9,2.3C422.5,134.5,425.8,135.8,429.1,137.4z M120.4,466.5
				c6.9-2.4,8.4-5.8,5.8-12.6c-0.1-0.3-0.2-0.6-0.4-0.9c-5-7.9-9.4-16.3-16.9-22.4c-3.4-2.7-6.7-5.6-10.2-8.6
				c-0.8,0.3-1.7,0.6-2.6,1c-3.4,1.6-4.2,4.5-1.8,7.3c5.1,5.8,10.2,11.7,15.7,17.2c4.1,4.1,7.3,8.9,10.3,13.8
				c0.3,0.6,0.1,1.7-0.2,2.4c-0.5,1.1-1.3,2-2.3,3.5C119.2,466.9,119.8,466.8,120.4,466.5z M256.8,353.2c0.3-2.4,0.5-4.8,1.2-7.1
				c1.6-5.2,4.7-7.5,10-7.8c3.1-0.2,6.3-0.3,9.7-0.5c0.1-3.5,0.3-7.1,0.3-10.7c0.1-3.5,0-7,0-10.7c-4.3-0.3-7.6-2-7.7-7.4
				c-0.7,1-1.6,2-2.2,3.1c-4.8,9-9.6,18-11.5,28c-1.2,6.2-1.8,12.5-2.6,18.8c-0.3,2.3-0.4,4.6-0.8,6.8c-0.5,3,0.2,5.8,1.3,9.2
				C255.3,367.2,256,360.2,256.8,353.2z M465.6,398.4c-0.1,1.4-0.2,2.7-0.2,3.9c-0.5,8.4-0.8,16.8-1.7,25.2c-0.5,4.4-1.7,8.8-3.1,13
				c-1.4,4.5-2.2,8.8-1.7,13.5c0.9,8.4,1.9,16.7,0.1,25.1c-1.2,5.7-2.3,11.3-3.5,17c-0.6,2.9-1.1,5.8-1.7,8.9c1.5,0,2.8,0,4.3,0
				c0.3-2.2,0.4-4.3,0.8-6.3c0.5-2.1,0.9-4.3,1.9-6.2c4.9-9.5,5.8-19.4,3.3-29.6c-1.6-6.6-1.6-13,0.4-19.4
				c3.3-10.8,4.2-21.8,3.9-33.1c-0.1-4,0.8-7.9,1.2-12.1C468.5,398.4,467.2,398.4,465.6,398.4z M370.3,150.2
				c6.7-3.4,13.6-6.8,21.1-10.6c-1-0.9-1.5-1.8-2.3-2.1c-4.7-2.3-9.5-4.5-14.3-6.6c-0.8-0.4-2-0.4-2.9-0.2c-5.1,1.1-9.9,2.9-14.1,6
				c-1.4,1.1-2.6,2.6-4,4.1C359.7,144.2,364.9,147.2,370.3,150.2z M501.3,236.4c2.5-0.2,4.9-0.3,7.4-0.5c8.2-0.9,16-3,23.1-7.5
				c1.7-1.1,2.4-2.2,2-4.2c-0.7-3.7-1.3-7.4-2-11.8c-6.1,8.4-14.9,10.2-23.7,12.1c-3.1,0.7-6.2,1.1-9.7,1.8
				C499.4,229.8,500.3,232.9,501.3,236.4z M361,391.8c0.6,0.2,0.9,0.4,1.2,0.4c6.8,0.4,6.9,0.4,7.3-6.5c0.4-8.6,0.7-17.2,1-25.8
				c0.1-3.4,0.4-6.8,0.5-10.1c0.1-2.9-0.9-3.9-3.9-4c-1.5-0.1-3,0-4.8,0C361.8,361.1,361.4,376.5,361,391.8z M406.9,282
				c-3.4,3.9-7,7.3-9.8,11.3c-5.5,8-11.3,15.8-17.7,23.2c-0.4,0.4-0.7,0.8-1,1.3c-3.2,4.1-5.7,8.5-5.7,14c0,4.3-0.7,8.7-1,13.3
				c2,0.2,3.8,0.4,5.9,0.5c-0.9-5.1-0.7-9.7,0.7-14.3c0.6-1.9,1.5-4,2.9-5.4c4.4-4.6,7.8-9.7,10.6-15.3c4.6-9.4,10.2-18.1,17.2-26.1
				C408.2,283.6,407.7,283.1,406.9,282z M239.5,428.8c1.7-0.5,2.3-1.6,2.6-3.3c1.1-6-0.3-11.7-1-17.6c-1.5-11.4-3.6-22.6-8.3-33.3
				c-2.2-5.1-5.5-9.4-9.7-13.4c-0.7,0.9-1.3,1.8-2,2.7c6.6,9.7,11,20.1,13.2,31.6c2.1,11.2,4,22.4,2.3,34.4
				C237.9,429.4,238.7,429,239.5,428.8z M461,268.4c-1.8-3.1-3.6-6.2-5.4-9.3c-10.5,9.9-20,20.9-31.8,29.8
				C433.3,289.4,455,277.4,461,268.4z M430.3,262.8c1.2-0.5,2.4-0.8,4.1-1.4c-6-3.4-12.6-4.2-16.9-8.6c0.4-2.8,0.7-5.3,1-7.7
				c-0.3-0.1-0.6-0.2-0.9-0.2c-1.3,3.8-1.4,8.2-4.9,11c-3.3,2.5-6.7,4.9-10.2,7.5c1.4,2,2.8,4,4.1,5.9c1.4,1.9,2.8,3.9,4.5,6.2
				C415.7,267.8,423.4,265.8,430.3,262.8z M471.3,393.6c-8.3-0.6-16.6-1.4-24.5-4.1c-13.4-4.6-26.2-10.5-37.3-19.4
				c-6.1-4.9-13.2-8-20.4-11c-0.9,1.7,0.3,2,1.3,2.4c2.6,1.1,5.3,2.1,7.9,3.3c4.4,1.9,8.1,4.6,11.2,8.3c2.8,3.3,6.1,6.2,9.4,9.1
				c3.4,2.9,7.4,5,11.8,6.2c8.3,2.2,16.6,4.8,24.9,7c6.9,1.8,13.8,1.3,20.8,0.5c0-0.4,0-0.7,0.1-1.1
				C474.8,394.2,473.1,393.7,471.3,393.6z M440,205c1.2,0.5,2.5,0.8,3.7,1.3c0.1-0.2,0.2-0.5,0.4-0.7c-1.6-2.1-3.2-4.3-4.8-6.4
				c-0.7-1-1.5-1.8-2.2-2.8c-3.5-4.9-3.2-7.5,1.1-11.6c-6.3-1-6.3-1-10.8-4c-0.6,0.5-1.3,1-2,1.5c-1.2-0.5-2.3-1-3.9-1.8
				c1.3,8.5,2.7,16.6,4.8,24.7C431.3,202.8,435.6,203.2,440,205z M255,168.3c-5,0.9-9.7,1.8-14.8,2.7c0.1,1.3-0.1,2.6,0.2,3.7
				c2.1,7.1,4.3,14.2,6.5,21.3c1.2,3.8,2.5,4.6,6.5,3.9c3.5-0.6,7-1.2,10.9-1.9C261.1,187.9,258.1,178.2,255,168.3z M263.8,201.2
				c0,5.2-0.1,10.3,0,15.4c0.5,16.5,6.5,31.3,14.5,45.5c2.4,4.2,5.2,8.1,7.8,12.1c0.9,1.5,2,1.6,3.5-0.2
				c-16.8-21.4-22.9-46.3-21.6-73.7C266.2,200.7,265.1,200.9,263.8,201.2z M294.2,288.9c2.8-0.3,5.6-0.4,8.4-0.3
				c32.2,1.5,62.7-4.2,90.3-21.9c0.3-0.2,0.6-0.5,1-0.8c-1.1-1.7-2-0.4-2.8,0c-6.8,3.3-13.5,6.7-20.3,9.9
				c-9.5,4.3-19.7,6.4-30.1,7.8c-9,1.2-18,1.9-27.1,2.5c-4,0.2-8-0.5-12.1-0.9c-4.5-0.4-9.1-0.9-13.7-1.3
				C288.6,287.4,291.3,289.2,294.2,288.9z M294.6,336.6c-1.6-0.3-2.9-0.5-4.3-0.7c-2.9-0.3-5.2,1.5-5.4,4.4
				c-0.5,5.2-0.7,10.4-1,15.7c0,0.6,0.1,1.3,0.5,1.9c2.7,4.8,5.5,9.6,8.3,14.4c0.2-0.1,0.4-0.1,0.6-0.2
				C293.7,360.3,294.1,348.6,294.6,336.6z M383.4,153.1c3.2,1.3,4.9,3,5.5,5.6c0.1,0.4,0.2,0.8,0.3,1.3c0.4,3.4-1.5,6.6-4.3,7.2
				c-2.7,0.6-5.8-1.7-6.6-5.2c-0.8-3.6,0-6.6,4.2-9c-3.5,0.4-6.2,0.7-9.2,1c1,3.5,1.9,6.8,2.8,10c1.9,6.8,3.9,13.7,5.7,20.5
				c0.5,1.9,1.3,2.8,3.4,2.6c2.8-0.3,5.7-0.2,8.5-0.4s3.2-0.7,2.8-3.5c-0.4-2.7-1.2-5.3-1.8-8c-1.6-6.7-3.1-13.4-4.7-20.1
				c-0.2-0.8-0.5-1.6-0.8-2.6C387.5,152.7,385.9,152.8,383.4,153.1z M437.8,208.6c-1.5-0.1-2.9-0.2-4.3-0.3
				c-4.6-0.1-9.1-0.4-13.4-2.4c-0.6-0.3-1.6-0.6-2.2-0.3c-3.2,1.4-6.2,3.1-8,5.8c3.2,1.5,6.3,3,9.4,4.5c1.3,0.6,2.6,1.2,3.9,1.5
				c5,1.2,10,1.9,15.4,2.2C438.4,215.8,438.1,212.4,437.8,208.6z M471.1,187.1c-1.4-3.5-2.1-7-1.4-11c0.7-3.5-3-6.8-7.8-7.6
				c0,0.7,0,1.4,0.1,2.1c0.6,5-1,7.9-5.8,9.6c-4,1.4-8.2,2.3-13,3.6c4.6,0.9,8.6,1.6,12.6,2.6c2.6,0.7,5.1,1.7,7.6,2.7
				c1.2,0.5,2.3,1.2,3.3,1.8C468.3,189.7,469.6,188.5,471.1,187.1z M429.9,280.4c5-4.8,9.9-9.6,14.8-14.3c0.3-0.3,0.5-0.7,0.8-1
				c-0.2-0.1-0.3-0.2-0.4-0.3c-4.4-1.9-8.3-1.4-11.7,2.2c-0.9,0.9-2.1,1.6-3.2,2.2c-4.6,2.5-8.9,5.4-11.7,10.1
				c-0.5,0.9-1.6,1.5-2.5,2.4C421,284.5,426.2,283.9,429.9,280.4z M261.9,162.4c2.5,8.5,5,16.9,7.8,26.1c1-3,1.8-5.2,2.7-7.7
				c-2.7-2.2-3.5-5.4-3.1-8.9c0.5-4.8,4.3-4.4,8.1-4.8c-1.7-4.6-3.2-8.9-5-13.9C268.4,156.5,265.2,159.4,261.9,162.4z M382.7,266.2
				c-11.6,5.4-23.5,10.1-36.1,12.6c-11.2,2.2-22.5,3.4-33.9,3.7c-8,0.3-15.5-1.3-22-6.4c-1.1,0.8-2.2,1.5-3.2,2.2
				c0.9,3.7,1.2,3.7,4.3,3.9c3.3,0.1,6.5,0.4,9.8,0.9c10.1,1.7,20.1,0.9,30.1-0.3c7.3-0.9,14.5-2.2,21.7-3.7
				c11.8-2.3,22.5-7.6,33.1-13c-0.1-0.3-0.1-0.7-0.2-1C385,265.5,383.8,265.7,382.7,266.2z M492.4,142.9c1-4.2-3.8-10.2-8.1-10.1
				c-2.4,0-5.3,3.4-5,5.9c0.2,2.3,0.7,4.5,0.8,6.8c0.1,2.9,1.9,4.3,4.4,4.9c2.1,0.5,4.2,0.5,6.3,0.7
				C491.3,148,491.8,145.4,492.4,142.9z M410.1,196.3c3,0.1,6.1-0.3,9.5-0.5c-0.8-4.4-1.6-8.9-2.5-13.7c-5.2,2.1-10.1,4.1-15,6.1
				c0.3,4.2,0.7,8.1,1.1,12.8C404.9,197.5,407,196.2,410.1,196.3z M278.7,306.6c1-0.1,1.8-0.2,2.7-0.2c8.5,0.2,17,0.4,25.6,0.7
				c2.8,0.1,4.5-1.6,7.1-3.3c-1.5-0.2-2.3-0.4-3.1-0.4c-10.9-0.5-21.8-1-32.8-1.4c-1,0-2.3,0.4-3.1,1.1c-1.3,1.1-1.9,7.5-0.8,8.7
				c0.9,0.9,2.3,1.3,4,2.1C278.5,310.9,278.6,308.9,278.7,306.6z M509.4,155.2c0.7-2.2,2.5-4,0.5-6.6c-2.4-3-4.3-6.4-8.8-6.4
				c-0.5,0-1.1-0.1-1.6,0.1c-1.5,0.4-3.5-0.4-4.3,1.6c-0.9,2.3-1.8,4.6-0.2,7.2c2,3.2,4.4,5.3,8.4,4.9c1.9-0.2,3.9-0.2,5.5-0.3
				C509.2,155.4,509.4,155.3,509.4,155.2z M358.3,334c-1.2,0-2.2,0-3.1,0c2.2,2.3,4.4,4.6,6.8,7.2c1.2-1.7,2.8-3.5,4-5.5
				c0.5-0.9,0.7-2.3,0.5-3.4c-2-9-4.1-18-6.2-27c-0.2,0-0.4,0-0.6-0.1C359.3,314.7,358.8,324.3,358.3,334z M360.5,301.7
				c0.4-3.2,0.8-6.1,1-9c0.1-2-1.3-3.8-3.5-4.2c-1.5-0.3-3-0.3-4.6-0.2c-4.7,0.3-5.9,1.6-6.1,6.3c-0.1,2,0,3.9,0,6.3
				C351.8,301.1,356.1,301.4,360.5,301.7z M383.9,363.7c0.5-4.7,1-9.2,1.5-14.2c-3.5-0.4-6.9-0.8-10.8-1.2c-0.5,4.7-1,9.3-1.5,14.3
				C376.7,362.9,380.2,363.3,383.9,363.7z M350.6,309.5c-3.9,1.9-5.5,9.2-2.5,12.4c2.3,2.4,4.9,4.5,7.9,7.2
				c0.3-7.6,0.6-14.8,0.9-22.5C354.4,307.8,352.5,308.6,350.6,309.5z M358,392.1c0.5-15.4,0.9-30.8,1.3-46.3c0.1-1.9-0.3-3.6-2-5.5
				c-0.2,4.3-0.4,8.1-0.6,11.8c-0.5,12.7-1.1,25.4-1.5,38c-0.1,4-1.1,7.3-5.7,9C355.2,399.2,357.8,396.9,358,392.1z M476.1,137.5
				c-0.5-3.2-5.9-5.4-8.4-3.4c-0.7,0.5-1.2,1.7-1.2,2.5c-0.1,3,0,6.1,0.3,9.1c0.1,0.9,1.2,2,2.1,2.5c2.6,1.4,5.4,1.3,8.6,0.5
				C477.1,144.8,476.7,141.1,476.1,137.5z M463.6,556.1c2.2,0,4.1,0,6.4,0c-0.4-6.1-0.5-12.2-1.2-18.2c-0.5-4.5-2.5-5.9-7.8-6.2
				C464,539.7,464,547.8,463.6,556.1z M405.7,241.6c-1.3,2.4,0.8,8.3,3.2,9.7c1.6,0.9,3.2,0.5,4.4-1.4c2.1-3.2,2.5-6.7,1.9-10.4
				c-0.5-2.6-1.3-5-4.1-6.8C409.2,235.8,407.3,238.6,405.7,241.6z M403.4,176.4c-1.7,0.8-3.1,1.5-4.7,2.2c0.3,2.4,0.7,4.7,1,7.2
				c0.4-0.1,0.9-0.2,1.2-0.3c5.3-2.2,10.7-4.3,16.8-6.8c-5.4-2.8-10.3-5.3-15.7-8C402.6,173,403,174.6,403.4,176.4z M451.3,188.7
				c-2.8-0.6-5.6-1.4-8.4-1.7c-1.1-0.2-2.4,0.3-3.4,0.9c-2,1-2.5,2.6-1.5,4.6c1.4,3,3.6,5.4,6,7.5
				C449.5,197.2,450.7,195.4,451.3,188.7z M495.7,161.9c-0.3-1.9-0.3-3.8-0.9-5.6c-0.4-1.4-1.2-2.9-3.2-2.6
				c-3.7,0.6-7.4,0.5-10.8-1.5C479.3,159.5,487.1,164.4,495.7,161.9z M497.1,164.9c-4.7,1-9.9,2-14.7-2.2c-0.1,3.4,0.4,6.3,1.6,8.9
				c0.3,0.6,1.5,1.2,2.3,1.3c3.6,0.4,7.3,0.6,10.9,0.9C497.1,170.9,497.1,168.1,497.1,164.9z M441.6,219.4c4.4,0.6,8.1-0.9,11.9-2.2
				c-0.7-1.5-1.5-2.9-2.1-4.4c-1.1-2.9-3.4-4.3-6.5-4c-1.3,0.1-2.6,0.1-4.2,0.2C441.1,212.7,441.4,216,441.6,219.4z M78.3,459.8
				c0.5-2-2.1-4-3.9-3.1c-2.4,1.3-4.6,2.9-7.1,4.5c1.4,2.8,2.6,5.5,4.2,7.9c0.6,1,2.1,1.4,3.7,2.3C76.5,467,77.5,463.4,78.3,459.8z
				 M350.2,410.8c-1.4-3.4-4.7-5-7.1-7.6c-2.2,1.5-4.3,2.9-6.4,4.3s-4.2,2.7-6.8,4.3C338.1,412.5,348.1,412.1,350.2,410.8z
				 M257.5,166.5c3,9.7,6,19.4,9.1,29.1c2-0.7,2.5-1.9,1.9-3.6c-2.8-9.2-5.5-18.3-8.4-28C259,165,258.3,165.7,257.5,166.5z
				 M75,474.8c-2.8,4-2.7,7.8,0.4,11.1c1.4,1.5,3.4,1.7,5.1,0.8c2.2-1.2,4.1-2.7,6.6-4.5C82.3,479.7,77.3,479.5,75,474.8z
				 M410.5,279.5c-3.8-5.3-7.6-10.7-11.4-16c-2.4-3.4-4.5-7-3.5-11.8c-3.6,3.5-3.9,6.9-1.1,10.3c5.8,7.1,11.6,14.2,17.3,21.4
				c1.4,1.7,2.9,2.9,5.4,2.5C413.8,284.9,412.3,282,410.5,279.5z M58.2,484.9c1.1,1.7,2.1,3.8,3.5,5.5c2.2,2.7,4.7,2.5,6.6-0.5
				c2.2-3.4,2.2-3.4-1.6-8.2C63.9,482.5,60.3,480.7,58.2,484.9z M399.3,139.1c2.6,0,5.1,0,7.7,0c0-1.1,0-2,0-3
				c3-1.9,5.9-3.7,9.1-5.7C408.4,129.1,400.5,133.1,399.3,139.1z M287.5,389.7c-0.2,3.1-0.3,6.1-0.5,9.2c4.3,0,8.2,0,12.2,0
				c0.1-0.2,0.3-0.4,0.4-0.6c-3.2-2.2-7.7-3.4-7.3-8.6C290.6,389.7,289.2,389.7,287.5,389.7z M384.1,147.2c3.7-0.3,7.4-0.7,11.4-1.1
				c0.5,1.8,1,3.5,1.6,5.8c1.6-3.3,3.1-6.1,4.6-9.1C394.8,139.7,389.6,143.9,384.1,147.2z M471.5,161.5c-1.4,6,2.6,10.2,8.6,8.8
				c-0.3-2.7-0.6-5.4-0.9-8.2C476.5,161.8,474,161.7,471.5,161.5z M400.7,203.7c-2.4-0.1-4.7-0.8-6.1,1.7c-1.7,3.2-1,6.4,0.5,9.4
				c1.3,2.7,3.7,0.8,6,1.6C398.7,211.9,398.7,207.9,400.7,203.7z M414.5,280.1c2.9-3.1,5.4-6.3,8.4-8.7c3.1-2.5,6.7-4.3,10.2-6.5
				c-0.1-0.2-0.2-0.4-0.3-0.6c-1.8,0.6-3.6,1.2-5.4,1.9c-2,0.9-3.9,1.9-5.8,2.9c-1.8,1-3.8,1.9-5.3,3.2c-1.5,1.3-2.6,3.2-3.9,4.9
				C413.1,278.1,413.7,278.9,414.5,280.1z M408.8,208.5c1.6-1.6,2.5-3.4,3-5.6c0.3-1.2,0.9-2.4,1.4-3.8c-0.9,0-1.7,0-2.5,0
				c-3.3,0.1-4.7,1.1-5.5,4.4c-0.8,3.5-0.5,6.9,0.4,10.2C406.7,212,407.4,209.9,408.8,208.5z M137,459.1c0-2.6,0-5.1,0-7.8
				c-3.2-0.4-5.7,1.2-8.4,2.3c0.3,1.5,0.5,2.9,0.8,4.4C132,458.4,134.4,458.8,137,459.1z M468.6,151.9c1.7,6.2,3.4,7.8,10,6.8
				c-0.5-2.2-0.9-4.4-1.3-6.3C474.2,152.2,471.4,152.1,468.6,151.9z M82.8,495.8c2.5,0.1,5.1,0.7,6.5-2.2c1.3-2.6,0.7-4.6-2.4-7.5
				c-1.2,0.8-2.4,1.7-3.3,2.4C83.3,491.3,83.1,493.5,82.8,495.8z M383.1,164.7c0.7,0.3,2,0.1,2.6-0.4c1.7-1.4,1.7-3.4,1.1-5.4
				c-0.6-2.2-2.2-3.5-3.9-3.3c-1.6,0.2-2.7,2-2.7,4.7C380.4,162,381.1,163.9,383.1,164.7z M398.3,230.9c2,0.3,3.4-0.7,4.2-2.6
				c0.9-2.1,2-4.1,2.7-6.3c0.9-2.8,0.4-3.3-2.5-3.2c-0.4,0-0.8,0.1-1.3,0.2C400.3,223,399.3,227,398.3,230.9z M72.6,488.4
				c-0.2,0.7-0.3,1.7-0.8,2.6c-0.9,1.9,0,2.9,1.7,3.3c1.9,0.4,3.8,0.6,6,0.9c0.4-1.8,0.8-3.3,1.1-4.6
				C77.7,489.8,75.2,489.1,72.6,488.4z M330.1,296.9c-0.1,1.8-0.2,3.6-0.3,5.6c2.5,0,4.7,0,7.3,0c0.1-1.7,0.2-3.4,0.3-5.6
				C334.8,296.9,332.6,296.9,330.1,296.9z M416.6,224.5c-1.6,2.7-0.1,4.9,1.5,7.3c4.2-3.1,1.9-7.7,3.6-11.7
				C418,220,417.7,222.7,416.6,224.5z M266.6,154.6c-1.5,0.7-2.5,1.2-3.5,1.5c-2.4,0.9-4.7,2.2-7.2,2.6c-3.8,0.6-4.4,0.6-7,4.2
				C255.3,161.5,262.2,161.5,266.6,154.6z M476.2,237.1c-0.2-2.2-0.5-4.3-0.7-6.5c-2.3-0.6-4.5-1.1-6.6-1.6
				C469.3,233.1,471,236.2,476.2,237.1z M403.5,129.8c-3.5-0.3-9.1,2.7-10.3,5.4c-0.9,2,0.2,3.3,3.2,3.4
				C396.8,134.1,400,132,403.5,129.8z M387,262.6c1.5,0.1,2.8-1.9,2.8-4.1c0-2-1.2-4-2.5-4.1c-1.5-0.1-2.8,1.9-2.8,4.1
				C384.5,260.6,385.7,262.5,387,262.6z M401.2,261.5c3.4-2.4,6.7-4.8,10.5-7.4c-3.3-0.7-5.6-0.5-7.5,1.8c-1.2,1.4-2.7,2.5-4.1,3.8
				C400.4,260.3,400.7,260.7,401.2,261.5z M403.1,244.8c-1.5,1.8-3.1,3.2-4,5c-0.9,1.6-0.1,2.4,1.7,2.4c1.6,0,3.2-0.2,5-0.4
				C404.8,249.3,404,247.3,403.1,244.8z M91.4,486.7c0.8,1.7,2.1,2,3.4,1.2c0.9-0.6,2.1-2.1,2-2.9c-0.3-1.2-1.7-2.9-2.6-2.9
				c-1.5,0-3,1.2-4.7,2C90.3,485.2,91,485.9,91.4,486.7z M59.9,479.2c1.9-0.1,3.7-0.2,5.5-0.3c-0.1-3.4-0.1-3.4-7.1-4.4
				C58.8,476.2,59.3,477.6,59.9,479.2z M276.9,170.5c-0.1-0.2-0.2-0.4-0.3-0.6c-1.4,0.5-3.4,0.5-4.1,1.5c-1.3,1.9-0.5,4.1,0.9,6.4
				C274.6,175.1,275.7,172.8,276.9,170.5z M418.5,199.2c-2.4,0.1-3.1,2.3-4.2,4.8c2.8-1.5,5.2-2.1,7.8-0.7
				C421.6,201.2,420.8,199.1,418.5,199.2z M243.5,166.4c2.9,1.2,11.2-0.6,13.4-2.9C252.3,164.5,248.1,165.4,243.5,166.4z M253.4,155
				c2.8,1.4,5,1,8.2-1.7C258.3,152.4,255.8,153,253.4,155z M414.2,139.6c-1.5,0.1-3,0.2-4.4,0.3c-0.1,0.3-0.2,0.6-0.2,0.9
				c1.6,0.8,3.3,1.7,5.5,2.8C414.7,142,414.5,141,414.2,139.6z M68.1,476.2c0.5,1.4,0.9,2.7,1.5,4.5c0.6-2.5,1.1-4.5,1.7-6.8
				C70.2,474.7,69.2,475.4,68.1,476.2z M402.8,254.3c-1.9,0.1-3,0.2-4.5,0.3c0.1,1.1,0.3,1.9,0.4,3.4
				C400.3,256.5,401.3,255.6,402.8,254.3z M313.6,412.2c-1.4-1.2-2.5-2.1-3.8-3.3C308.8,411.8,308.9,411.8,313.6,412.2z
				 M114.4,464.6c4-1.1,4-1.1,2.6-3.7C116.2,462.1,115.4,463.2,114.4,464.6z M399.9,233.5c-2.2,1.1-2.5,1.5-2.7,5.3
				C398,237.1,398.9,235.4,399.9,233.5z M381.7,263.7c0.1,0.1,0.4,0.3,0.4,0.3c0.3-0.2,0.5-0.4,0.8-0.7c-0.2-0.2-0.3-0.3-0.5-0.5
				C382.2,263.1,381.9,263.4,381.7,263.7z"/>
			<path id="XMLID_372_" class="st3" d="M416.2,418.5c0.2,3.1-1.1,5.3-3.9,6.6c-5,2.4-10.1,4.7-15.1,7.1c-1.9,0.9-3.8,0.9-5.7,0
				c-3.8-1.8-7.5-3.5-11.2-5.4c-1.7-0.9-2.8-2.3-3-4.4c-0.5-6.9-1.2-13.7-1.6-20.6c-0.1-2.3,0.2-4.6,0.7-6.8
				c1.8-7.3,7.9-14.9,19.2-12.2c2.7,0.7,5.4,1.6,8,2.8c5.5,2.4,9,6.7,10.7,12.5c1.5,5.1,2.3,10.2,1.9,15.5
				C416.1,415.3,416.1,416.9,416.2,418.5z M380.1,421.3c0.1,1.6,0.7,2.7,2.1,3.3c3.2,1.5,6.2,3.2,9.5,4.5c1.5,0.6,3.6,0.7,5,0.1
				c4.7-1.9,9.3-4.3,14-6.4c1.9-0.9,2.7-2.3,2.6-4.4c-0.3-5.2-0.2-10.5-0.8-15.7c-1.6-12.1-11-16.8-21.3-17.3
				c-5.4-0.3-8.7,2.9-10.9,7.4c-1.9,4-2.1,8.2-1.7,12.5C379,410.6,379.6,416,380.1,421.3z"/>
			<path id="XMLID_371_" class="st3" d="M484.6,509.1c-3.9,1.1-7.7,2.5-11.7,3.3c-3.6,0.8-7.3,1.3-11,1.3
				c-6.9,0.1-13.8-0.7-20.7-0.2c-7.4,0.6-14.8,1.9-22,3.5c-17.2,3.8-34.7,4.8-52.2,4.9c-12.1,0.1-24.3,0-36.4-0.2
				c-20.8-0.4-41.1-4.1-60.9-10.4c-2.9-0.9-5.9-1.8-8.8-2.7c-1.2-0.4-2.1-0.4-2.2,1.5c2.9,0.9,5.7,1.9,8.6,2.7
				c13.2,4,26.4,8,40.2,9.2c12.3,1.1,24.7,2,37,2.1c16.5,0.1,33.1-0.1,49.6-1.2c10.1-0.6,20.1-2.7,30.1-4.8c9.6-2,19.2-3,29-2.3
				c10.1,0.7,19.9-0.2,29.4-3.9c1.6-0.6,2.6-1.1,1.9-2.9L484.6,509.1z"/>
			<path id="XMLID_368_" class="st3" d="M301.1,439c4.9,0,9.3,4.7,9.2,10c0,5.3-4.1,9.7-9,9.9c-5,0.1-9.2-4.3-9.3-9.8
				C292,443.5,296.1,439,301.1,439z M301.1,456.7c4,0,7-3.5,6.9-8c-0.1-4.3-3.3-7.5-7.1-7.4c-3.8,0.1-6.9,3.6-6.8,7.8
				C294.2,453.3,297.3,456.7,301.1,456.7z"/>
			<path id="XMLID_365_" class="st3" d="M343.3,460.5c-4.9-0.1-9-4.5-9-9.9c0-5.5,4.1-9.9,9.2-9.9s9.2,4.4,9.1,10
				C352.6,456.1,348.3,460.6,343.3,460.5z M343.3,458.3c3.8,0.2,7.2-3.5,7.3-7.7c0-4.2-3.3-7.9-7.1-7.8c-3.7,0.1-6.9,3.6-6.9,7.7
				C336.4,454.5,339.6,458.2,343.3,458.3z"/>
			<path id="XMLID_362_" class="st3" d="M315.5,450.2c0-3.7,3-6.4,6.8-6.4s6.7,2.9,6.7,6.5s-3.1,6.5-6.9,6.4
				C318.4,456.8,315.5,453.9,315.5,450.2z M317.7,450.2c0,2.5,2.1,4.5,4.7,4.4c2.5,0,4.5-1.9,4.5-4.3s-2.1-4.5-4.7-4.4
				C319.7,446,317.7,447.9,317.7,450.2z"/>
			<path id="XMLID_359_" class="st3" d="M301.5,364.5c0.3-6.3,0.6-12.7,0.9-19c0.3-5.3,1.9-6.8,7.1-6.6c10.7,0.4,21.4,0.9,32.1,1.3
				c4.9,0.2,6.6,2,6.4,6.9c-0.5,12.6-1,25.1-1.5,37.7c-0.2,4.7-2.2,6.4-6.8,6.3c-10.9-0.5-21.9-0.9-32.8-1.4c-4.5-0.2-6.3-2-6.1-6.6
				C301,376.9,301.3,370.7,301.5,364.5C301.6,364.5,301.5,364.5,301.5,364.5z M309,341c-3.4-0.1-4.3,0.8-4.4,4.1
				c-0.6,12.6-1.1,25.1-1.7,37.7c-0.2,3.5,0.8,4.6,4.2,4.8c10.7,0.5,21.4,0.9,32.2,1.3c4.3,0.2,5-0.4,5.2-4.8
				c0.6-12.2,1.1-24.5,1.6-36.7c0.2-4.2-0.6-4.9-4.8-5.1c-5.4-0.2-10.7-0.5-16.1-0.7c0,0,0,0,0,0.1C319.7,341.4,314.4,341.2,309,341
				z"/>
			<path id="XMLID_356_" class="st3" d="M321,410.2c-3.9,0-7-3.1-7-7.1s3-7.2,6.9-7.3c3.8-0.1,7,3.1,7,7.1
				C327.8,407,324.8,410.2,321,410.2z M316,403.3c0.2,2.8,2.5,4.9,5.2,4.8c2.5-0.2,4.5-2.4,4.5-5.1c0-2.8-2.3-5-4.9-5
				C318.1,398.1,315.9,400.6,316,403.3z"/>
			<path id="XMLID_353_" class="st3" d="M454.9,146.1c1.2,8.6,2.2,16.7,3.3,24.9c-4.6,1.1-8.9,2.1-13.4,3.2
				c-0.2-1.1-0.5-1.9-0.6-2.8c-1-7.2-2-14.5-3-22.1C445.8,148.3,450.2,147.2,454.9,146.1z M446.5,171.5c3.2-0.8,6.1-1.4,9.4-2.2
				c-0.9-6.8-1.8-13.6-2.8-20.6c-3.2,0.8-6.1,1.5-9.4,2.3C444.6,157.9,445.5,164.5,446.5,171.5z"/>
			<path id="XMLID_350_" class="st3" d="M253.5,184.1c2.9,0,5.7,3.3,5.7,6.8c0,3.3-2.2,5.8-5,5.7c-3.1-0.1-5.6-3.3-5.5-7
				C248.8,186.6,250.9,184.1,253.5,184.1z M253.7,186.4c-1.6-0.1-2.8,1.3-2.8,3.3c-0.1,2.4,1.7,4.8,3.5,4.7c1.5,0,2.7-1.6,2.7-3.5
				C257.1,188.7,255.4,186.5,253.7,186.4z"/>
			<path id="XMLID_347_" class="st3" d="M249.5,170.2c2.8,0.1,5.3,3.1,5.3,6.5c0,3.1-1.9,5.5-4.4,5.6c-2.9,0.1-5.6-2.9-5.6-6.5
				C244.8,172.5,246.8,170.1,249.5,170.2z M250.1,180c1.4,0,2.5-1.3,2.6-3.2c0.1-2.2-1.7-4.6-3.4-4.5c-1.3,0.1-2.4,1.6-2.4,3.4
				C246.9,177.9,248.5,180,250.1,180z"/>
			<path id="XMLID_344_" class="st3" d="M385.1,170.3c2-1.1,3.8-0.6,5.5,0.6c3.2,2.3,4.3,7.5,2.3,10.9c-1.7,2.9-4.8,3.6-7.5,1.7
				c-2.4-1.7-3.4-4.2-3.4-7.1C382,173.8,382.8,171.6,385.1,170.3z M386.4,181.4c1.6,1.7,4,1.2,4.7-1c0.5-1.7,0.4-3.7,0-5.4
				c-0.6-2.3-2.8-3.4-4.5-3c-1.6,0.4-2.6,2.2-3,4.8C384.5,178.4,385.2,180.1,386.4,181.4z"/>
			<polygon id="XMLID_343_" class="st3" points="465,203.1 464.9,202.9 464.9,203.1 			"/>
			<path id="XMLID_342_" class="st3" d="M449.2,194.5c0.1-0.1,0.2-0.3,0.2-0.4C449.4,194.2,449.4,194.3,449.2,194.5L449.2,194.5z"/>
			<path id="XMLID_341_" class="st3" d="M448,196.5v-0.2V196.5z"/>
			<path id="XMLID_340_" class="st3" d="M448,196.5h-0.2H448z"/>
			<polygon id="XMLID_339_" class="st3" points="449.3,194.5 449.1,194.6 449.2,194.5 			"/>
			<path id="XMLID_336_" class="st3" d="M381.6,394.5c1.3-4,4.2-6.9,8.7-7.5c8.1-1.1,17.2,4.4,19.4,12.3c1.1,4.1,1.8,8.4,1.7,12.6
				c-0.2,9.1,1.4,8.1-7.8,12.6c-10.3,5.1-8.1,5.4-19.4-0.7c-0.2-0.1-0.4-0.2-0.6-0.3c-1.4-0.8-2.2-2-2.3-3.7
				c-0.4-4.7-0.9-9.4-1.5-15.6C380.2,401.9,380.4,398.1,381.6,394.5z M407.7,400.4c-1.8-6.9-9.1-11.8-16.2-11.4
				c-3.4,0.2-5.9,2-7.3,4.9c-1.1,2.5-2.1,5.4-2,8.1c0,5.8,0.7,11.6,1.2,17.3c0.1,0.8,0.9,1.6,1.4,2.4c0.2,0.2,0.5,0.4,0.8,0.5
				c10.2,5.2,7.1,5.1,16.7,0.5c0.1,0,0.2-0.1,0.3-0.1c8-4.1,6.2-2.7,7-10.7C409.1,408.1,408.7,404.1,407.7,400.4z"/>
		</g>
	</g>
</g>
</svg>
